<svg xmlns="http://www.w3.org/2000/svg" fill="none" viewBox="0 0 315 36">
  <path fill="#00CE58" d="M314.47 1.01h-119v32.46h119V1.01Z"/>
  <path fill="#000" d="M37.75 7.58H0V.92h43.47l-5.72 6.66Zm-26.88 25.7H0v-19.5h38.04l-5.73 6.65H10.87V33.3ZM58.21.92V17.1c0 12.38 21.74 12.38 21.74 0V.92H90.8V17.1c0 8.9-8.66 16.19-19.24 16.19h-4.98C56 33.29 47.34 26 47.34 17.1V.92H58.2Zm54.86 12.85h22.8l-5.74 6.66H108.7v6.19h26.88l5.73 6.66H99.12l13.95-19.51ZM111.7.92h29.6l-5.73 6.66h-27.5L111.7.92Zm45.1 0V17.1c0 5.24 5.1 9.52 11.32 9.52h21.29v6.67h-24.23c-10.59 0-19.25-7.29-19.25-16.19V.92h10.87Z"/>
  <path fill="#fff" d="M224.11 5.86c7.4 0 13.46 5.1 13.46 11.32 0 6.23-6.05 11.32-13.46 11.32h-16.94v-4.66h14.89c4.35 0 7.91-3 7.91-6.66s-3.56-6.65-7.91-6.65h-14.89V5.86h16.94Zm31.59 0 4.61 5.63L274.3 28.5h-9.24l-9.37-11.4-9.36 11.4h-9.24l13.98-17.01 4.62-5.63Zm31.58 0h3.48c7.4 0 13.46 5.1 13.46 11.32 0 6.23-6.06 11.32-13.46 11.32h-3.48c-7.4 0-13.46-5.1-13.46-11.32 0-6.22 6.05-11.32 13.46-11.32Zm-5.86 11.32c0 8.66 15.2 8.66 15.2 0 0-8.65-15.2-8.65-15.2 0Z"/>
  <path fill="#00CE58" stroke="#fff" stroke-width=".5" d="m101 18.31.06-.22-.22-.07-5.8-1.94L101.18.76h9.67l-5.27 9.7-.14.24.26.1 6.6 2.62-15.22 21.3 3.93-16.4Z"/>
</svg>