<svg xmlns="http://www.w3.org/2000/svg" fill="none" viewBox="0 0 315 40">
  <path fill="#00CE58" d="M314.47 1.58h-119v32.46h119V1.58Z"/>
  <path fill="#fff" d="M37.75 8.15H0V1.48h43.47l-5.72 6.67Zm-26.88 25.7H0V14.34h38.04L32.3 21H10.87v12.85ZM58.21 1.48v16.19c0 12.38 21.74 12.38 21.74 0V1.48H90.8v16.19c0 8.9-8.66 16.18-19.24 16.18h-4.98c-10.59 0-19.25-7.28-19.25-16.18V1.48H58.2Zm54.86 12.85h22.8L130.12 21H108.7v6.18h26.88l5.73 6.67H99.12l13.95-19.52ZM111.7 1.48h29.6l-5.73 6.67h-27.5l3.63-6.67Zm45.1 0v16.19c0 5.23 5.1 9.52 11.32 9.52h21.29v6.66h-24.23c-10.59 0-19.25-7.28-19.25-16.18V1.48h10.87Zm67.31 4.95c7.4 0 13.46 5.1 13.46 11.32 0 6.22-6.05 11.32-13.46 11.32h-16.94V24.4h14.89c4.35 0 7.91-3 7.91-6.66s-3.56-6.66-7.91-6.66h-14.89V6.43h16.94Zm31.59 0 4.61 5.62 13.99 17.02h-9.24l-9.37-11.4-9.36 11.4h-9.24l13.98-17.02 4.62-5.62Zm31.58 0h3.48c7.4 0 13.46 5.1 13.46 11.32 0 6.22-6.06 11.32-13.46 11.32h-3.48c-7.4 0-13.46-5.1-13.46-11.32 0-6.23 6.05-11.32 13.46-11.32Zm-5.86 11.32c0 8.65 15.2 8.65 15.2 0 0-8.66-15.2-8.66-15.2 0Z"/>
  <path fill="#00CE58" fill-rule="evenodd" d="M100.77 18.82 94.7 16.8 101 1.07h10.26l-5.47 10.07 6.9 2.73-16.16 22.6 4.22-17.65Z" clip-rule="evenodd"/>
  <path fill="#232323" d="m110.33 1.58-5.33 9.8 6.83 2.71-14 19.61 3.63-15.2-6-2 5.98-14.92h8.89Zm1.88-1.01h-11.63l-.28.69-5.98 14.92-.37.91 1.07.36 5.05 1.69-3.43 14.36-1.38 5.75 3.6-5.03 14-19.6.7-.97-1.21-.48-5.76-2.27 4.83-8.9.79-1.43Z"/>
</svg>