<svg id="Layer_1" data-name="Layer 1" xmlns="http://www.w3.org/2000/svg" viewBox="0 0 782.15 96.29"><defs><style>.cls-1,.cls-3{fill:#02b74b;}.cls-2{fill:#fff;}.cls-3{fill-rule:evenodd;}</style></defs><title>fueldao logo white</title><rect class="cls-1" x="486.15" y="0.29" width="296" height="96"/><path class="cls-2" d="M-851.27,1221.42h-93.88v-19.71H-837Zm-66.85,76h-27v-57.73h94.61l-14.25,19.71h-53.33Z" transform="translate(945.15 -1201.71)"/><path class="cls-2" d="M-800.37,1201.71v47.87c0,36.6,54.06,36.6,54.06,0v-47.87h27v47.87a48,48,0,0,1-47.87,47.86h-12.39a48,48,0,0,1-47.87-47.86v-47.87Z" transform="translate(945.15 -1201.71)"/><path class="cls-2" d="M-663.93,1239.72h56.69l-14.25,19.71h-53.33v18.31H-608l14.24,19.71H-698.61Zm-3.4-38h73.61L-608,1221.42h-68.41Z" transform="translate(945.15 -1201.71)"/><path class="cls-2" d="M-555.16,1201.71v47.87A28.24,28.24,0,0,0-527,1277.73h52.94v19.71h-60.26a48,48,0,0,1-47.87-47.86v-47.87Z" transform="translate(945.15 -1201.71)"/><path class="cls-2" d="M-387.74,1216.34a33.58,33.58,0,0,1,33.48,33.48,33.58,33.58,0,0,1-33.48,33.48h-42.15v-13.78h37a19.76,19.76,0,0,0,19.69-19.7,19.75,19.75,0,0,0-19.69-19.69h-37v-13.79Z" transform="translate(945.15 -1201.71)"/><path class="cls-2" d="M-309.2,1216.34l11.49,16.63,34.78,50.33h-23l-23.29-33.7-23.29,33.7h-23l34.78-50.33Z" transform="translate(945.15 -1201.71)"/><path class="cls-2" d="M-230.64,1216.34H-222a33.58,33.58,0,0,1,33.48,33.48A33.57,33.57,0,0,1-222,1283.3h-8.66a33.57,33.57,0,0,1-33.48-33.48A33.58,33.58,0,0,1-230.64,1216.34Zm-14.58,33.48c0,25.61,37.82,25.61,37.82,0S-245.22,1224.22-245.22,1249.82Z" transform="translate(945.15 -1201.71)"/><polygon class="cls-3" points="253.89 0.29 274.41 0.29 261.15 29.29 278.15 37.29 243.3 95.29 252.34 50.35 237.42 44.43 252.3 0.29 253.89 0.29"/></svg>